#File written by RizomUV 2024.0.77.g0a32654f. Compilation :Jul  3 2024,15:09:51
mtllib dwig.mtl
#begin vertices
v -0.893995 0.425833 -0.110024
v -1.098544 0.631487 0.139766
v -0.893995 0.88288 -0.110024
v -1.098544 0.822101 0.139766
v -0.863452 0.425833 -0.107016
v -1.098544 0.631487 -0.057862
v -0.863452 0.88288 -0.107016
v -1.098544 0.822101 -0.057862
v -0.834082 0.425833 -0.098107
v -1.019997 0.631487 0.139766
v -0.834082 0.88288 -0.098107
v -1.019997 0.822101 0.139766
v -0.807015 0.425833 -0.083639
v -1.019997 0.631487 -0.057862
v -0.807015 0.88288 -0.083639
v -1.019997 0.822101 -0.057862
v -0.78329 0.425833 -0.064169
v -0.78329 0.88288 -0.064169
v -0.76382 0.425833 -0.040444
v -0.76382 0.88288 -0.040444
v -0.749352 0.425833 -0.013377
v -0.749352 0.88288 -0.013377
v -0.740443 0.425833 0.015993
v -0.740443 0.88288 0.015993
v -0.737435 0.425833 0.046536
v -0.737435 0.88288 0.046536
v -0.740443 0.425833 0.07708
v -0.740443 0.88288 0.07708
v -0.749352 0.425833 0.106449
v -0.749352 0.88288 0.106449
v -0.76382 0.425833 0.133517
v -0.76382 0.88288 0.133517
v -0.78329 0.425833 0.157241
v -0.78329 0.88288 0.157241
v -0.807015 0.425833 0.176712
v -0.807015 0.88288 0.176712
v -0.834082 0.425833 0.191179
v -0.834082 0.88288 0.191179
v -0.863452 0.425833 0.200089
v -0.863452 0.88288 0.200089
v -0.893995 0.425833 0.203097
v -0.893995 0.88288 0.203097
v -0.924539 0.425833 0.200089
v -0.924539 0.88288 0.200089
v -0.953909 0.425833 0.191179
v -0.953909 0.88288 0.191179
v -0.980976 0.425833 0.176712
v -0.980976 0.88288 0.176712
v -1.004701 0.425833 0.157241
v -1.004701 0.88288 0.157241
v -1.024171 0.425833 0.133517
v -1.024171 0.88288 0.133517
v -1.038639 0.425833 0.106449
v -1.038639 0.88288 0.106449
v -1.047548 0.425833 0.07708
v -1.047548 0.88288 0.07708
v -1.050556 0.425833 0.046536
v -1.050556 0.88288 0.046536
v -1.047548 0.425833 0.015993
v -1.047548 0.88288 0.015993
v -1.038639 0.425833 -0.013377
v -1.038639 0.88288 -0.013377
v -1.024171 0.425833 -0.040444
v -1.024171 0.88288 -0.040444
v -1.004701 0.425833 -0.064169
v -1.004701 0.88288 -0.064169
v -0.980976 0.425833 -0.083639
v -0.980976 0.88288 -0.083639
v -0.953909 0.425833 -0.098107
v -0.953909 0.88288 -0.098107
v -0.924539 0.425833 -0.107016
v -0.924539 0.88288 -0.107016
v -1.019997 0.822101 0.138602
v -1.019997 0.631487 0.138602
v -1.024171 0.822101 0.133517
v -1.024171 0.631487 0.133517
v -1.038639 0.631487 0.106449
v -1.038639 0.822101 0.106449
v -1.047548 0.631487 0.07708
v -1.047548 0.822101 0.07708
v -1.050556 0.631487 0.046536
v -1.050556 0.822101 0.046536
v -1.047548 0.631487 0.015993
v -1.047548 0.822101 0.015993
v -1.038639 0.631487 -0.013377
v -1.038639 0.822101 -0.013377
v -1.024171 0.631487 -0.040444
v -1.024171 0.822101 -0.040444
v -1.019997 0.631487 -0.04553
v -1.019997 0.822101 -0.04553
#end vertices

#begin 180 textures vertices 
vt 0.07549469 0.05295119 0
vt 0.9761117 0.0537432 0
vt 0.5873393 0.05295119 0
vt 0.9761117 0.3920987 0
vt 0.07549469 0.05631984 0
vt 0.6398526 0.00390625 0
vt 0.5873393 0.05631984 0
vt 0.6398526 0.3422618 0
vt 0.07549469 0.06629698 0
vt 0.9143841 0.09662849 0
vt 0.5873393 0.06629698 0
vt 0.9143841 0.434984 0
vt 0.07549469 0.08249962 0
vt 0.578125 0.04679154 0
vt 0.5873393 0.08249962 0
vt 0.578125 0.385147 0
vt 0.07549469 0.104304 0
vt 0.5873393 0.104304 0
vt 0.07549469 0.1308735 0
vt 0.5873393 0.1308735 0
vt 0.07549469 0.1611857 0
vt 0.5873393 0.1611857 0
vt 0.07549469 0.194077 0
vt 0.5873393 0.194077 0
vt 0.07549469 0.2282819 0
vt 0.5873393 0.2282819 0
vt 0.07549469 0.262488 0
vt 0.5873393 0.262488 0
vt 0.07549469 0.2953782 0
vt 0.5873393 0.2953782 0
vt 0.07549469 0.3256915 0
vt 0.5873393 0.3256915 0
vt 0.07549469 0.3522599 0
vt 0.5873393 0.3522599 0
vt 0.07549469 0.3740654 0
vt 0.5873393 0.3740654 0
vt 0.07549469 0.3902669 0
vt 0.5873393 0.3902669 0
vt 0.07549469 0.4002452 0
vt 0.5873393 0.4002452 0
vt 0.07549469 0.4036138 0
vt 0.5873393 0.4036138 0
vt 0.07549469 0.4002452 0
vt 0.5873393 0.4002452 0
vt 0.07549469 0.3902669 0
vt 0.5873393 0.3902669 0
vt 0.07549469 0.3740654 0
vt 0.5873393 0.3740654 0
vt 0.07549469 0.3522599 0
vt 0.5873393 0.3522599 0
vt 0.07549469 0.3256915 0
vt 0.5873393 0.3256915 0
vt 0.07549469 0.2953782 0
vt 0.5873393 0.2953782 0
vt 0.07549469 0.262488 0
vt 0.5873393 0.262488 0
vt 0.07549469 0.2282819 0
vt 0.5873393 0.2282819 0
vt 0.07549469 0.194077 0
vt 0.5873393 0.194077 0
vt 0.07549469 0.1611857 0
vt 0.5873393 0.1611857 0
vt 0.07549469 0.1308735 0
vt 0.5873393 0.1308735 0
vt 0.07549469 0.104304 0
vt 0.5873393 0.104304 0
vt 0.07549469 0.08249962 0
vt 0.5873393 0.08249962 0
vt 0.07549469 0.06629698 0
vt 0.5873393 0.06629698 0
vt 0.07549469 0.05631984 0
vt 0.1612061 0.8095285 0
vt 0.5192732 0.3313862 0
vt 0.3058056 0.3313862 0
vt 0.5192732 0.3256915 0
vt 0.3058056 0.3256915 0
vt 0.3058056 0.2953782 0
vt 0.5192732 0.2953782 0
vt 0.3058056 0.262488 0
vt 0.5192732 0.262488 0
vt 0.3058056 0.2282819 0
vt 0.5192732 0.2282819 0
vt 0.3058056 0.194077 0
vt 0.5192732 0.194077 0
vt 0.3058056 0.1611857 0
vt 0.5192732 0.1611857 0
vt 0.3058056 0.1308735 0
vt 0.5192732 0.1308735 0
vt 0.3058056 0.1251777 0
vt 0.5192732 0.1251777 0
vt 0.8723462 0.07804855 0
vt 0.6488608 0.499507 0
vt 0.5885273 0.4672589 0
vt 0.9124036 0.4346905 0
vt 0.6202825 0.4804115 0
vt 0.5548172 0.4605541 0
vt 0.07549469 0.05295119 0
vt 0.9070318 0.4311292 0
vt 0.2610429 0.7896711 0
vt 0.5873393 0.05295119 0
vt 0.1955776 0.8095285 0
vt 0.8293769 0.06577825 0
vt 0.2896212 0.7705757 0
vt 0.2292878 0.8028238 0
vt 0.7797709 0.05643348 0
vt 0.6731654 0.5238104 0
vt 0.7797709 0.394789 0
vt 0.3139258 0.7462723 0
vt 0.7254389 0.0503736 0
vt 0.6922608 0.5523889 0
vt 0.7254389 0.3887291 0
vt 0.3330212 0.7176937 0
vt 0.7054146 0.5841432 0
vt 0.346175 0.6859395 0
vt 0.7121202 0.6178539 0
vt 0.3528806 0.6522287 0
vt 0.7121203 0.6522244 0
vt 0.3528807 0.6178583 0
vt 0.7054154 0.6859356 0
vt 0.3461758 0.584147 0
vt 0.6922628 0.7176896 0
vt 0.3330233 0.552393 0
vt 0.6731673 0.7462691 0
vt 0.3139277 0.5238136 0
vt 0.648864 0.7705726 0
vt 0.2896244 0.4995101 0
vt 0.6202853 0.7896691 0
vt 0.2610458 0.4804136 0
vt 0.5885312 0.8028218 0
vt 0.2292916 0.4672609 0
vt 0.5548203 0.8095284 0
vt 0.1955807 0.4605542 0
vt 0.5204499 0.8095285 0
vt 0.1612103 0.4605541 0
vt 0.4867387 0.8028237 0
vt 0.1274991 0.467259 0
vt 0.4549836 0.7896699 0
vt 0.09574404 0.4804128 0
vt 0.4264052 0.7705756 0
vt 0.06716564 0.4995071 0
vt 0.4021007 0.7462711 0
vt 0.04286113 0.5238116 0
vt 0.9124036 0.09633495 0
vt 0.9070318 0.09277371 0
vt 0.3830052 0.7176936 0
vt 0.02376563 0.552389 0
vt 0.8723462 0.4164041 0
vt 0.0106119 0.5841444 0
vt 0.3698515 0.6859383 0
vt 0.8293769 0.4041338 0
vt 0.00390625 0.6178541 0
vt 0.3631458 0.6522286 0
vt 0.00390625 0.6522256 0
vt 0.3631458 0.6178571 0
vt 0.01061099 0.6859357 0
vt 0.3698506 0.5841469 0
vt 0.02376368 0.7176909 0
vt 0.6684653 0.3861869 0
vt 0.3830033 0.5523918 0
vt 0.6684653 0.04783136 0
vt 0.04285911 0.7462692 0
vt 0.6110415 0.3872605 0
vt 0.4020987 0.5238135 0
vt 0.6110415 0.048905 0
vt 0.5991076 0.3882569 0
vt 0.06716248 0.7705738 0
vt 0.5991076 0.04990136 0
vt 0.4264021 0.4995089 0
vt 0.4549806 0.4804135 0
vt 0.09574105 0.7896692 0
vt 0.4867349 0.4672597 0
vt 0.1274953 0.802823 0
vt 0.5873393 0.05631984 0
vt 0.5204457 0.4605541 0
vt 0.6398526 0.00390625 0
vt 0.9761117 0.0537432 0
vt 0.9761117 0.0537432 0
vt 0.9761117 0.3920987 0
vt 0.9761117 0.3920987 0
vt 0.6398526 0.3422618 0
#end 180 textures vertices 

#begin 38 normals 
vn 0.098 -0 -0.9952
vn 0.2903 -0 -0.9569
vn 0.4714 -0 -0.8819
vn 0.6344 -0 -0.773
vn 0.773 -0 -0.6344
vn 0.8819 -0 -0.4714
vn 0.9569 -0 -0.2903
vn 0.9952 -0 -0.098
vn 0.9952 -0 0.098
vn 0.9569 -0 0.2903
vn 0.8819 -0 0.4714
vn 0.773 -0 0.6344
vn 0.6344 -0 0.773
vn 0.4714 -0 0.8819
vn 0.2903 -0 0.9569
vn 0.098 -0 0.9952
vn -0.098 -0 0.9952
vn -0.2903 -0 0.9569
vn -0.4714 -0 0.8819
vn -0.6344 -0 0.773
vn -0.773 -0 0.6344
vn -0.8819 -0 0.4714
vn -0.9569 -0 0.2903
vn -0.9952 -0 0.098
vn -0.9952 -0 -0.098
vn -0.9569 -0 -0.2903
vn -0.8819 -0 -0.4714
vn -0.773 -0 -0.6344
vn -0.6344 -0 -0.773
vn -0.4714 -0 -0.8819
vn -0 1 -0
vn -0.2903 -0 -0.9569
vn -0.098 -0 -0.9952
vn -0 -1 -0
vn -1 -0 -0
vn -0 -0 -1
vn 1 -0 -0
vn -0 -0 1
#end 38 normals 

#begin 47 faces
o Цилиндр:014
s 0
f 1/1/1 3/3/1 7/7/1 5/5/1 
f 5/5/2 7/7/2 11/11/2 9/9/2 
f 9/9/3 11/11/3 15/15/3 13/13/3 
f 13/13/4 15/15/4 18/18/4 17/17/4 
f 17/17/5 18/18/5 20/20/5 19/19/5 
f 19/19/6 20/20/6 22/22/6 21/21/6 
f 21/21/7 22/22/7 24/24/7 23/23/7 
f 23/23/8 24/24/8 26/26/8 25/25/8 
f 25/25/9 26/26/9 28/28/9 27/27/9 
f 27/27/10 28/28/10 30/30/10 29/29/10 
f 29/29/11 30/30/11 32/32/11 31/31/11 
f 31/31/12 32/32/12 34/34/12 33/33/12 
f 33/33/13 34/34/13 36/36/13 35/35/13 
f 35/35/14 36/36/14 38/38/14 37/37/14 
f 37/37/15 38/38/15 40/40/15 39/39/15 
f 39/39/16 40/40/16 42/42/16 41/41/16 
f 41/41/17 42/42/17 44/44/17 43/43/17 
f 43/43/18 44/44/18 46/46/18 45/45/18 
f 45/45/19 46/46/19 48/48/19 47/47/19 
f 47/47/20 48/48/20 50/50/20 49/49/20 
f 51/51/21 49/49/21 50/50/21 52/52/21 75/75/21 73/73/21 74/74/21 76/76/21 
f 75/75/22 52/52/22 54/54/22 78/78/22 
f 53/53/22 51/51/22 76/76/22 77/77/22 
f 78/78/23 54/54/23 56/56/23 80/80/23 
f 55/55/23 53/53/23 77/77/23 79/79/23 
f 56/56/24 58/58/24 82/82/24 80/80/24 
f 57/57/24 55/55/24 79/79/24 81/81/24 
f 82/82/25 58/58/25 60/60/25 84/84/25 
f 59/59/25 57/57/25 81/81/25 83/83/25 
f 60/60/26 62/62/26 86/86/26 84/84/26 
f 61/61/26 59/59/26 83/83/26 85/85/26 
f 62/62/27 64/64/27 88/88/27 86/86/27 
f 63/63/27 61/61/27 85/85/27 87/87/27 
f 64/64/28 66/66/28 65/65/28 63/63/28 87/87/28 89/89/28 90/90/28 88/88/28 
f 65/65/29 66/66/29 68/68/29 67/67/29 
f 67/67/30 68/68/30 70/70/30 69/69/30 
f 18/108/31 15/103/31 11/99/31 7/104/31 3/101/31 72/72/31 70/172/31 68/170/31 66/166/31 64/161/31 62/157/31 60/155/31 58/153/31 56/151/31 54/148/31 52/146/31 50/142/31 48/140/31 46/138/31 44/136/31 42/134/31 40/132/31 38/130/31 36/128/31 34/126/31 32/124/31 30/122/31 28/120/31 26/118/31 24/116/31 22/114/31 20/112/31 
f 69/69/32 70/70/32 72/173/32 71/71/32 
f 71/71/33 72/173/33 3/100/33 1/97/33 
f 71/174/34 1/96/34 5/93/34 9/95/34 13/92/34 17/106/34 19/110/34 21/113/34 23/115/34 25/117/34 27/119/34 29/121/34 31/123/34 33/125/34 35/127/34 37/129/34 39/131/34 41/133/34 43/135/34 45/137/34 47/139/34 49/141/34 51/145/34 53/149/34 55/152/34 57/154/34 59/156/34 61/159/34 63/163/34 65/168/34 67/169/34 69/171/34 
f 2/2/35 4/4/35 8/8/35 6/6/35 
f 6/6/36 8/8/36 16/16/36 14/14/36 
f 12/12/37 10/10/37 74/143/37 73/94/37 
f 14/14/37 16/16/37 90/165/37 89/167/37 
f 10/10/38 12/12/38 4/178/38 2/177/38 
f 10/10/34 2/176/34 6/175/34 14/14/34 89/167/34 87/164/34 85/160/34 83/109/34 81/105/34 79/102/34 77/91/34 76/144/34 74/143/34 
f 90/165/31 16/16/31 8/180/31 4/179/31 12/12/31 73/94/31 75/98/31 78/147/31 80/150/31 82/107/31 84/111/31 86/158/31 88/162/31 
#end 47 faces

#ZOMPROPERTIES_04{
#ZOMPROPERTIES_04 table {Mesh table {SymPlane table {Point vector3d 0 0 0 Normal vector3d 1 0 0 Threshold double 0.01 
#ZOMPROPERTIES_04 Enabled bool false EdgeID int -1 SymEdgeID int -1 UPos double 0.5 LocalMode bool false } RootGroup C
#ZOMPROPERTIES_04 SubMeshGroup {Children table {Tile_0_0 CSubMeshGroup {Children table {G0 CSubMeshGroup {Children tab
#ZOMPROPERTIES_04 le {} BBoxUV box3d 0.0754947 0.587339 0.0529512 0.403614 0 0 BBox3D box3d 0 0 0 0 0 0 Area3D double 
#ZOMPROPERTIES_04 0 AreaUV double 0.314951 IsRoot bool false Properties table {Selected bool false Box box3d 0.0754947
#ZOMPROPERTIES_04  0.587339 0.0529512 0.403614 0 0 U int 0 V int 0 NU int 0 NV int 0 Tiling vector3d 1 1 1 TileRatioMo
#ZOMPROPERTIES_04 de string "1:1" Overflow string "Off" Pack table {BoxFrameEdit bool false Behavior string "Free" Loc
#ZOMPROPERTIES_04 ked bool false Scaling table {Optimization string "Fill" } } Hotspot table {} Color int -3687294 } I
#ZOMPROPERTIES_04 sTile bool false PolyIDs ints { 0 1 2 3 4 5 6 7 8 9 10 11 12 13 14 15 16 17 18 19 20 22 24 26 28 30 
#ZOMPROPERTIES_04 32 33 34 35 37 38 31 29 27 25 23 21 } } } BBoxUV box3d 0 0 0 0 0 0 BBox3D box3d 0 0 0 0 0 0 Area3D d
#ZOMPROPERTIES_04 ouble 0 AreaUV double 0.6988 IsRoot bool false Properties table {Selected bool false Box box3d 0 1 0
#ZOMPROPERTIES_04  1 0 1 U int 0 V int 0 NU int 0 NV int 0 Tiling vector3d 1 1 1 TileRatioMode string "1:1" Overflow s
#ZOMPROPERTIES_04 tring "Off" Pack table {BoxFrameEdit bool false Behavior string "Free" Locked bool false Scaling tab
#ZOMPROPERTIES_04 le {Optimization string "Fill" } } Hotspot table {} } IsTile bool true PolyIDs ints { 36 39 40 41 43
#ZOMPROPERTIES_04  46 42 45 44 } } } BBoxUV box3d 0 0 0 0 0 0 BBox3D box3d 0 0 0 0 0 0 Area3D double 0 AreaUV double 0
#ZOMPROPERTIES_04  IsRoot bool true Properties table {Selected bool false Box box3d 0 1 0 1 0 1 U int 0 V int 0 NU int
#ZOMPROPERTIES_04  1 NV int 1 Tiling vector3d 1 1 1 TileRatioMode string "1:1" Overflow string "Off" Pack table {Rotat
#ZOMPROPERTIES_04 e table {Mode int 1 Min double 0 Max double 90 Step double 0 } PaddingSize double 0.0078125 MarginSi
#ZOMPROPERTIES_04 ze double 0.00390625 Resolution int 256 MapResolution int 2048 Scaling table {TexelDensity double 10
#ZOMPROPERTIES_04 24 Mode int 2 Optimization string "Fill" } LayoutScalingMode int 2 MaxMutations int 1 } Hotspot tabl
#ZOMPROPERTIES_04 e {} } IsTile bool false PolyIDs ints { } } Maps table {Pin CDataMap {PrimType string "Vertex" Size 
#ZOMPROPERTIES_04 int 1 DefaultValue double 0 ScaleType string "Normalized" MergeMode string "Max" MinValue double 0 M
#ZOMPROPERTIES_04 axValue double 1 Data doubles { r 180 0 } } Density CDataMap {PrimType string "Polygon" Size int 1 D
#ZOMPROPERTIES_04 efaultValue double 1 ScaleType string "Log" MergeMode string "Average" MinValue double 0.1 MaxValue 
#ZOMPROPERTIES_04 double 4 Data doubles { r 47 1 } } Protect CDataMap {PrimType string "Vertex" Size int 1 DefaultValu
#ZOMPROPERTIES_04 e double 0 ScaleType string "Normalized" MergeMode string "Average" MinValue double -1 MaxValue doub
#ZOMPROPERTIES_04 le 1 Data doubles { r 180 0 } } } } }
#ZOMPROPERTIES_04}


#ZOMSCENE_01{
#ZOMSCENE_01 CScene {Settings table {AxisSystem table {UpVector string "y" } Unit string "cm" TexelDensityDisplay
#ZOMSCENE_01 Unit string "tx/cm" } Root CXForm {} }
#ZOMSCENE_01}

#begin 0 fatal error vertex (that RizomUV cannot handle)
#end 0 fatal error vertex (that RizomUV cannot handle)

#begin 0 error vertex
#end 0 error vertex
