#File written by RizomUV 2024.0.77.g0a32654f. Compilation :Jul  3 2024,15:09:51
mtllib shup.mtl
#begin vertices
v -0.08982 0.386638 0.027768
v -0.08982 0.386638 0.027768
v -0.083173 0.386638 0.02909
v -0.077537 0.386638 0.032856
v -0.077537 0.386638 0.032856
v -0.077537 0.386638 0.032856
v -0.072783 0.386638 0.041749
v -0.072783 0.386638 0.041749
v -0.07245 0.386638 0.045138
v -0.07245 0.386638 0.045138
v -0.075377 0.386638 0.054789
v -0.075377 0.386638 0.054789
v -0.077537 0.386638 0.057421
v -0.077537 0.386638 0.057421
v -0.086431 0.386638 0.062175
v -0.086431 0.386638 0.062175
v -0.08982 0.386638 0.062509
v -0.08982 0.386638 0.062509
v -0.099471 0.386638 0.059581
v -0.099471 0.386638 0.059581
v -0.102103 0.386638 0.057421
v -0.102103 0.386638 0.057421
v -0.106857 0.386638 0.048527
v -0.106857 0.386638 0.048527
v -0.107191 0.386638 0.045138
v -0.107191 0.386638 0.045138
v -0.104263 0.386638 0.035488
v -0.104263 0.386638 0.035488
v -0.102103 0.386638 0.032856
v -0.102103 0.386638 0.032856
v -0.093209 0.386638 0.028102
v -0.093209 0.386638 0.028102
v -0.089821 0.339686 0.038466
v -0.086431 0.359028 0.028102
v -0.08017 0.359028 0.030695
v -0.085103 0.339686 0.040421
v -0.075377 0.359028 0.035488
v -0.072783 0.359028 0.041749
v -0.083149 0.339686 0.045138
v -0.072783 0.359028 0.048527
v -0.075377 0.359028 0.054789
v -0.085103 0.339686 0.049856
v -0.08017 0.359028 0.059581
v -0.086431 0.359028 0.062175
v -0.089821 0.339686 0.05181
v -0.093209 0.359028 0.062175
v -0.099471 0.359028 0.059581
v -0.094539 0.339686 0.049856
v -0.104263 0.359028 0.054789
v -0.106857 0.359028 0.048527
v -0.096493 0.339686 0.045138
v -0.106857 0.359028 0.041749
v -0.104263 0.359028 0.035488
v -0.094539 0.339686 0.040421
v -0.099471 0.359028 0.030695
v -0.093209 0.359028 0.028102
#end vertices

#begin 88 textures vertices 
vt 0.1072152 0.003906255 0
vt 0.003915671 0.006478756 0
vt 0.7337632 0.00390625 0
vt 0.7555889 0.003906642 0
vt 0.7555883 0.003909278 0
vt 0.8690738 0.005203689 0
vt 0.1310163 0.003906386 0
vt 0.1310163 0.00390625 0
vt 0.2744557 0.6098551 0
vt 0.2744664 0.6098426 0
vt 0.1192969 0.0215033 0
vt 0.1192966 0.02150329 0
vt 0.7705742 0.6097642 0
vt 0.7705829 0.6097778 0
vt 0.1194901 0.01018706 0
vt 0.1194901 0.01018689 0
vt 0.9059096 0.6097475 0
vt 0.9059001 0.6097451 0
vt 0.1070198 0.0206803 0
vt 0.10702 0.02068049 0
vt 0.4097818 0.609814 0
vt 0.4097723 0.6098055 0
vt 0.1440641 0.009963718 0
vt 0.1440641 0.009963581 0
vt 0.5082527 0.005227573 0
vt 0.5082456 0.005215954 0
vt 0.1310163 0.01714564 0
vt 0.1310165 0.01714568 0
vt 0.3729471 0.005195867 0
vt 0.372935 0.005205597 0
vt 0.1064142 0.003906472 0
vt 0.1064142 0.00390625 0
vt 0.4840272 0.6110946 0
vt 0.04824475 0.365558 0
vt 0.1387713 0.3667129 0
vt 0.9157875 0.6106039 0
vt 0.9106538 0.3463817 0
vt 0.9960839 0.3469815 0
vt 0.980157 0.6110431 0
vt 0.2328629 0.2686191 0
vt 0.1474208 0.2680227 0
vt 0.1633299 0.00390625 0
vt 0.728998 0.2685597 0
vt 0.6435562 0.2680017 0
vt 0.6594918 0.00390625 0
vt 0.8643419 0.26857 0
vt 0.7788667 0.2679683 0
vt 0.7948141 0.00390625 0
vt 0.3682113 0.2685888 0
vt 0.2827379 0.2680032 0
vt 0.2986351 0.00390625 0
vt 0.5498439 0.3464356 0
vt 0.6352685 0.3470007 0
vt 0.6193743 0.6110831 0
vt 0.4145241 0.346401 0
vt 0.499971 0.3470077 0
vt 0.00390625 0.006491523 0
vt 0.8690841 0.005197207 0
vt 0.1317657 0.003906493 0
vt 0.1187152 0.02150346 0
vt 0.1187152 0.01018682 0
vt 0.1064142 0.02068038 0
vt 0.1433171 0.009963823 0
vt 0.1314764 0.01714579 0
vt 0.05056719 0.6492751 0
vt 0.11879 0.650148 0
vt 0.2277222 0.004345314 0
vt 0.7238751 0.004347895 0
vt 0.859197 0.004347086 0
vt 0.3630239 0.00434457 0
vt 0.5550005 0.6106452 0
vt 0.4196337 0.6106555 0
vt 0.9960937 0.00390625 0
vt 0.4999564 0.00390625 0
vt 0.282728 0.6110966 0
vt 0.1440642 0.00390625 0
vt 0.6352759 0.00390625 0
vt 0.1310162 0.020876 0
vt 0.1064145 0.0103988 0
vt 0.1310162 0.009984108 0
vt 0.7788671 0.6110523 0
vt 0.1070197 0.01576905 0
vt 0.119297 0.01678788 0
vt 0.1474174 0.6111314 0
vt 0.1194898 0.00390625 0
vt 0.6435716 0.6110782 0
vt 0.09378714 0.00390625 0
vt 0.744672 0.09282146 0
#end 88 textures vertices 

#begin 56 normals 
vn 0.8053 -0.49 -0.3336
vn -0.7098 0.6047 0.3613
vn -0.9341 -0 0.3569
vn -0.9131 0.0067 0.4077
vn 0.8053 -0.49 0.3336
vn -0.7574 0.6047 -0.2464
vn -0.9129 -0 -0.4081
vn -0.9339 0.0068 -0.3574
vn 0.3336 -0.49 0.8054
vn -0.3613 0.6047 -0.7098
vn -0.3569 -0 -0.9341
vn -0.4077 0.0067 -0.9131
vn -0.3336 -0.49 0.8054
vn -0.8054 -0.49 0.3336
vn -0.8054 -0.49 -0.3336
vn -0.3336 -0.49 -0.8054
vn 0.7098 0.6047 -0.3613
vn 0.9341 -0 -0.3569
vn 0.9131 0.0067 -0.4077
vn -0.2464 0.6047 0.7574
vn -0.4081 -0 0.9129
vn -0.3574 0.0068 0.9339
vn -0 1 -0
vn 0.7293 0.6474 0.2212
vn 0.9339 0.0068 0.3574
vn 0.3482 -0.0074 -0.9374
vn 0.1495 0.6426 -0.7515
vn 0.3827 0.0097 -0.9238
vn 0.7574 0.6047 0.2464
vn 0.6214 0.5948 0.51
vn 0.9129 -0 0.4081
vn 0.4167 -0.0075 -0.909
vn 0.4257 0.6426 -0.6371
vn 0.3593 0.6474 0.6721
vn 0.4077 0.0067 0.9131
vn 0.6721 0.6474 -0.3593
vn 0.3613 0.6047 0.7098
vn 0.0788 0.5948 0.8
vn 0.3569 -0 0.9341
vn 0.8 0.5948 -0.0788
vn 0.9952 -0 -0.098
vn -0.2212 0.6474 0.7293
vn -0.51 0.5948 0.6214
vn 0.773 -0 0.6344
vn -0.6721 0.6474 0.3593
vn -0.8 0.5948 0.0788
vn 0.098 -0 0.9952
vn -0.7293 0.6474 -0.2212
vn -0.6214 0.5948 -0.51
vn -0.6344 -0 0.773
vn -0.3593 0.6474 -0.6721
vn -0.0788 0.5948 -0.8
vn -0.9952 -0 0.098
vn -0.773 -0 -0.6344
vn 0.3336 -0.49 -0.8054
vn -0.098 -0 -0.9952
#end 56 normals 

#begin 48 faces
o Цилиндр:014
s 1
f 38/38/1 39/39/1 36/36/1 37/37/1 
f 23/75/2 50/50/3 49/49/4 
f 41/41/5 42/42/5 39/67/5 40/40/5 
f 27/77/6 53/53/7 52/52/8 
f 44/44/9 45/45/9 42/68/9 43/43/9 
f 31/74/10 56/56/11 55/55/12 
f 47/47/13 48/48/13 45/69/13 46/46/13 
f 50/50/14 51/51/14 48/70/14 49/49/14 
f 53/53/15 54/54/15 51/71/15 52/52/15 
f 56/56/16 33/33/16 54/72/16 55/55/16 
f 7/73/17 38/38/18 37/37/19 
f 19/81/20 47/47/21 46/46/22 
f 9/9/23 10/10/24 40/40/25 
f 34/34/26 2/2/27 3/87/28 
f 11/11/29 12/12/30 41/83/31 
f 35/88/32 4/4/33 5/5/23 
f 13/13/23 14/14/34 43/43/35 
f 37/37/19 6/6/36 7/73/17 
f 15/15/37 16/16/38 44/85/39 
f 38/80/18 8/8/40 9/59/41 
f 17/17/23 18/18/42 46/46/22 
f 40/40/25 10/10/24 11/84/29 
f 19/19/20 20/20/43 47/82/21 
f 41/83/31 12/12/30 13/60/44 
f 21/21/23 22/22/45 49/49/4 
f 43/43/35 14/14/34 15/86/37 
f 23/23/2 24/24/46 50/76/3 
f 44/85/39 16/16/38 17/61/47 
f 25/25/23 26/26/48 52/52/8 
f 46/46/22 18/18/42 19/81/20 
f 27/27/6 28/28/49 53/78/7 
f 47/82/21 20/20/43 21/62/50 
f 29/29/23 30/30/51 55/55/12 
f 49/49/4 22/22/45 23/75/2 
f 31/31/10 32/32/52 56/79/11 
f 50/76/3 24/24/46 25/63/53 
f 11/84/29 41/41/31 40/40/25 
f 52/52/8 26/26/48 27/77/6 
f 34/34/26 3/87/28 35/35/32 
f 53/78/7 28/28/49 29/64/54 
f 55/55/12 30/30/51 31/74/10 
f 35/35/55 36/66/55 33/65/55 34/34/55 
f 5/58/23 6/6/36 37/37/19 
f 15/86/37 44/44/39 43/43/35 
f 3/3/28 4/4/33 35/88/32 
f 56/79/11 32/32/52 1/1/56 
f 1/57/23 2/2/27 34/34/26 
f 7/7/17 8/8/40 38/80/18 
#end 48 faces

#ZOMPROPERTIES_04{
#ZOMPROPERTIES_04 table {Mesh table {SymPlane table {Point vector3d 0 0 0 Normal vector3d 1 0 0 Threshold double 0.01 
#ZOMPROPERTIES_04 Enabled bool false EdgeID int -1 SymEdgeID int -1 UPos double 0.5 LocalMode bool false } RootGroup C
#ZOMPROPERTIES_04 SubMeshGroup {Children table {Tile_0_0 CSubMeshGroup {Children table {} BBoxUV box3d 0 0 0 0 0 0 BBo
#ZOMPROPERTIES_04 x3D box3d 0 0 0 0 0 0 Area3D double 0 AreaUV double 0.449147 IsRoot bool false Properties table {Sel
#ZOMPROPERTIES_04 ected bool false Box box3d 0 1 0 1 0 1 U int 0 V int 0 NU int 0 NV int 0 Tiling vector3d 1 1 1 TileR
#ZOMPROPERTIES_04 atioMode string "1:1" Overflow string "Off" Pack table {BoxFrameEdit bool false Behavior string "Fre
#ZOMPROPERTIES_04 e" Locked bool false Scaling table {Optimization string "Fill" } } Hotspot table {} } IsTile bool tr
#ZOMPROPERTIES_04 ue PolyIDs ints { 30 39 14 23 22 31 26 35 19 47 18 27 34 45 15 44 13 46 38 41 0 10 17 42 3 37 28 8 4
#ZOMPROPERTIES_04  43 25 16 5 40 32 9 6 11 29 20 2 36 21 12 1 7 33 24 } } } BBoxUV box3d 0 0 0 0 0 0 BBox3D box3d 0 0 
#ZOMPROPERTIES_04 0 0 0 0 Area3D double 0 AreaUV double 0 IsRoot bool true Properties table {Selected bool false Box b
#ZOMPROPERTIES_04 ox3d 0 1 0 1 0 1 U int 0 V int 0 NU int 1 NV int 1 Tiling vector3d 1 1 1 TileRatioMode string "1:1" 
#ZOMPROPERTIES_04 Overflow string "Off" Pack table {Rotate table {Mode int 1 Min double 0 Max double 90 Step double 0 
#ZOMPROPERTIES_04 } PaddingSize double 0.0078125 MarginSize double 0.00390625 Resolution int 256 MapResolution int 204
#ZOMPROPERTIES_04 8 Scaling table {TexelDensity double 1024 Mode int 2 Optimization string "Fill" } LayoutScalingMode 
#ZOMPROPERTIES_04 int 2 MaxMutations int 1 } Hotspot table {} } IsTile bool false PolyIDs ints { } } Maps table {Pin C
#ZOMPROPERTIES_04 DataMap {PrimType string "Vertex" Size int 1 DefaultValue double 0 ScaleType string "Normalized" Mer
#ZOMPROPERTIES_04 geMode string "Max" MinValue double 0 MaxValue double 1 Data doubles { r 88 0 } } Density CDataMap {
#ZOMPROPERTIES_04 PrimType string "Polygon" Size int 1 DefaultValue double 1 ScaleType string "Log" MergeMode string "
#ZOMPROPERTIES_04 Average" MinValue double 0.1 MaxValue double 4 Data doubles { r 48 1 } } Protect CDataMap {PrimType 
#ZOMPROPERTIES_04 string "Vertex" Size int 1 DefaultValue double 0 ScaleType string "Normalized" MergeMode string "Ave
#ZOMPROPERTIES_04 rage" MinValue double -1 MaxValue double 1 Data doubles { r 88 0 } } } } }
#ZOMPROPERTIES_04}


#ZOMSCENE_01{
#ZOMSCENE_01 CScene {Settings table {AxisSystem table {UpVector string "y" } Unit string "cm" TexelDensityDisplay
#ZOMSCENE_01 Unit string "tx/cm" } Root CXForm {} }
#ZOMSCENE_01}

#begin 0 fatal error vertex (that RizomUV cannot handle)
#end 0 fatal error vertex (that RizomUV cannot handle)

#begin 0 error vertex
#end 0 error vertex
